<svg width="758" height="312" viewBox="0 0 758 312" fill="none" xmlns="http://www.w3.org/2000/svg">
<line x1="73.0024" y1="145.5" x2="694.002" y2="148.5" stroke="black"/>
<rect x="178" y="56" width="431" height="256" rx="20" fill="#CFCFCF"/>
<rect y="132" width="73" height="26" rx="13" fill="#6808F9"/>
<path d="M23.1092 147.241C22.9686 148.444 22.5232 149.373 21.7732 150.03C21.0284 150.681 20.0363 151.006 18.7967 151.006C17.4529 151.006 16.3748 150.524 15.5623 149.561C14.755 148.597 14.3514 147.308 14.3514 145.694V144.6C14.3514 143.543 14.5389 142.613 14.9139 141.811C15.2941 141.009 15.8305 140.394 16.5232 139.967C17.2159 139.535 18.018 139.319 18.9295 139.319C20.1378 139.319 21.1066 139.657 21.8357 140.334C22.5649 141.006 22.9894 141.939 23.1092 143.131H21.6014C21.4712 142.225 21.1873 141.569 20.7498 141.162C20.3175 140.756 19.7107 140.553 18.9295 140.553C17.9712 140.553 17.2186 140.907 16.6717 141.616C16.13 142.324 15.8592 143.332 15.8592 144.639V145.741C15.8592 146.975 16.117 147.957 16.6326 148.686C17.1482 149.415 17.8696 149.78 18.7967 149.78C19.63 149.78 20.268 149.592 20.7107 149.217C21.1587 148.837 21.4555 148.178 21.6014 147.241H23.1092ZM26.5076 150.85H25.0623V142.397H26.5076V150.85ZM24.9451 140.155C24.9451 139.92 25.0154 139.722 25.1561 139.561C25.3019 139.399 25.5154 139.319 25.7967 139.319C26.0779 139.319 26.2915 139.399 26.4373 139.561C26.5831 139.722 26.6561 139.92 26.6561 140.155C26.6561 140.389 26.5831 140.584 26.4373 140.741C26.2915 140.897 26.0779 140.975 25.7967 140.975C25.5154 140.975 25.3019 140.897 25.1561 140.741C25.0154 140.584 24.9451 140.389 24.9451 140.155ZM32.9139 143.694C32.6951 143.657 32.4581 143.639 32.2029 143.639C31.255 143.639 30.6118 144.043 30.2732 144.85V150.85H28.8279V142.397H30.2342L30.2576 143.373C30.7316 142.618 31.4034 142.241 32.2732 142.241C32.5545 142.241 32.768 142.277 32.9139 142.35V143.694ZM33.742 146.553C33.742 145.225 34.0467 144.176 34.6561 143.405C35.2654 142.629 36.0831 142.241 37.1092 142.241C38.1092 142.241 38.8982 142.577 39.4764 143.248L39.5389 142.397H40.867V154.1H39.4217V150.069C38.8383 150.694 38.0623 151.006 37.0936 151.006C36.0727 151.006 35.2576 150.61 34.6482 149.819C34.0441 149.022 33.742 147.967 33.742 146.655V146.553ZM35.1873 146.717C35.1873 147.686 35.3904 148.446 35.7967 148.998C36.2081 149.551 36.7602 149.827 37.4529 149.827C38.3123 149.827 38.9686 149.446 39.4217 148.686V144.545C38.9633 143.801 38.3123 143.428 37.4686 143.428C36.7706 143.428 36.2159 143.707 35.8045 144.264C35.393 144.816 35.1873 145.634 35.1873 146.717ZM46.1795 139.037H44.6873V152.1H46.1795V153.287H43.2342V137.85H46.1795V139.037ZM54.4217 145.998C54.4217 147.691 54.1326 148.949 53.5545 149.772C52.9764 150.595 52.0727 151.006 50.8436 151.006C49.63 151.006 48.7316 150.605 48.1482 149.803C47.5649 148.996 47.2628 147.793 47.242 146.194V144.264C47.242 142.592 47.5311 141.35 48.1092 140.537C48.6873 139.725 49.5936 139.319 50.8279 139.319C52.0519 139.319 52.9529 139.712 53.5311 140.498C54.1092 141.28 54.4061 142.488 54.4217 144.123V145.998ZM52.9764 144.022C52.9764 142.798 52.8045 141.907 52.4607 141.35C52.117 140.787 51.5727 140.506 50.8279 140.506C50.0883 140.506 49.5493 140.785 49.2107 141.342C48.8722 141.899 48.6977 142.756 48.6873 143.912V146.225C48.6873 147.454 48.8644 148.363 49.2186 148.952C49.5779 149.535 50.1196 149.827 50.8436 149.827C51.5571 149.827 52.0857 149.551 52.4295 148.998C52.7784 148.446 52.9607 147.577 52.9764 146.389V144.022ZM55.3982 137.85H58.3514V153.287H55.3982V152.1H56.9061V139.037H55.3982V137.85Z" fill="white"/>
<rect x="311" width="123" height="40" rx="20" fill="#E05A33"/>
<path d="M342.523 5.85938H338.867V16H337.375V5.85938H333.726V4.625H342.523V5.85938ZM347.476 8.84375C347.258 8.80729 347.021 8.78906 346.765 8.78906C345.818 8.78906 345.174 9.19271 344.836 10V16H343.39V7.54688H344.797L344.82 8.52344C345.294 7.76823 345.966 7.39062 346.836 7.39062C347.117 7.39062 347.331 7.42708 347.476 7.5V8.84375ZM353.719 16C353.635 15.8333 353.568 15.5365 353.515 15.1094C352.844 15.8073 352.041 16.1562 351.109 16.1562C350.276 16.1562 349.591 15.9219 349.054 15.4531C348.523 14.9792 348.258 14.3802 348.258 13.6562C348.258 12.776 348.591 12.0938 349.258 11.6094C349.929 11.1198 350.872 10.875 352.086 10.875H353.492V10.2109C353.492 9.70573 353.341 9.30469 353.039 9.00781C352.737 8.70573 352.291 8.55469 351.703 8.55469C351.187 8.55469 350.755 8.6849 350.406 8.94531C350.057 9.20573 349.883 9.52083 349.883 9.89062H348.429C348.429 9.46875 348.578 9.0625 348.875 8.67188C349.177 8.27604 349.583 7.96354 350.094 7.73438C350.609 7.50521 351.174 7.39062 351.789 7.39062C352.763 7.39062 353.526 7.63542 354.078 8.125C354.63 8.60938 354.916 9.27865 354.937 10.1328V14.0234C354.937 14.7995 355.036 15.4167 355.234 15.875V16H353.719ZM351.32 14.8984C351.773 14.8984 352.203 14.7812 352.609 14.5469C353.015 14.3125 353.31 14.0078 353.492 13.6328V11.8984H352.359C350.588 11.8984 349.703 12.4167 349.703 13.4531C349.703 13.9062 349.854 14.2604 350.156 14.5156C350.458 14.7708 350.846 14.8984 351.32 14.8984ZM358.57 7.54688L358.617 8.60938C359.263 7.79688 360.107 7.39062 361.148 7.39062C362.935 7.39062 363.836 8.39844 363.851 10.4141V16H362.406V10.4062C362.401 9.79688 362.26 9.34635 361.984 9.05469C361.713 8.76302 361.289 8.61719 360.711 8.61719C360.242 8.61719 359.831 8.74219 359.476 8.99219C359.122 9.24219 358.846 9.57031 358.648 9.97656V16H357.203V7.54688H358.57ZM370.953 13.7578C370.953 13.3672 370.804 13.0651 370.508 12.8516C370.216 12.6328 369.703 12.4453 368.969 12.2891C368.239 12.1328 367.659 11.9453 367.226 11.7266C366.799 11.5078 366.482 11.2474 366.273 10.9453C366.07 10.6432 365.969 10.2839 365.969 9.86719C365.969 9.17448 366.26 8.58854 366.844 8.10938C367.432 7.63021 368.182 7.39062 369.094 7.39062C370.052 7.39062 370.828 7.63802 371.422 8.13281C372.021 8.6276 372.32 9.26042 372.32 10.0312H370.867C370.867 9.63542 370.698 9.29427 370.359 9.00781C370.026 8.72135 369.604 8.57812 369.094 8.57812C368.568 8.57812 368.156 8.69271 367.859 8.92188C367.562 9.15104 367.414 9.45052 367.414 9.82031C367.414 10.1693 367.552 10.4323 367.828 10.6094C368.104 10.7865 368.601 10.9557 369.32 11.1172C370.044 11.2786 370.63 11.4714 371.078 11.6953C371.526 11.9193 371.857 12.1901 372.07 12.5078C372.289 12.8203 372.398 13.2031 372.398 13.6562C372.398 14.4115 372.096 15.0182 371.492 15.4766C370.888 15.9297 370.104 16.1562 369.14 16.1562C368.463 16.1562 367.864 16.0365 367.344 15.7969C366.823 15.5573 366.414 15.224 366.117 14.7969C365.825 14.3646 365.679 13.8984 365.679 13.3984H367.125C367.151 13.8828 367.344 14.2682 367.703 14.5547C368.068 14.8359 368.547 14.9766 369.14 14.9766C369.687 14.9766 370.125 14.8672 370.453 14.6484C370.786 14.4245 370.953 14.1276 370.953 13.7578ZM381.422 11.8672C381.422 13.1536 381.127 14.1901 380.539 14.9766C379.95 15.763 379.153 16.1562 378.148 16.1562C377.122 16.1562 376.315 15.8307 375.726 15.1797V19.25H374.281V7.54688H375.601L375.672 8.48438C376.26 7.75521 377.078 7.39062 378.125 7.39062C379.14 7.39062 379.943 7.77344 380.531 8.53906C381.125 9.30469 381.422 10.3698 381.422 11.7344V11.8672ZM379.976 11.7031C379.976 10.75 379.773 9.9974 379.367 9.44531C378.961 8.89323 378.403 8.61719 377.695 8.61719C376.82 8.61719 376.164 9.00521 375.726 9.78125V13.8203C376.159 14.5911 376.82 14.9766 377.711 14.9766C378.403 14.9766 378.953 14.7031 379.359 14.1562C379.771 13.6042 379.976 12.7865 379.976 11.7031ZM384.836 16H383.39V7.54688H384.836V16ZM383.273 5.30469C383.273 5.07031 383.344 4.8724 383.484 4.71094C383.63 4.54948 383.844 4.46875 384.125 4.46875C384.406 4.46875 384.62 4.54948 384.765 4.71094C384.911 4.8724 384.984 5.07031 384.984 5.30469C384.984 5.53906 384.911 5.73438 384.765 5.89062C384.62 6.04688 384.406 6.125 384.125 6.125C383.844 6.125 383.63 6.04688 383.484 5.89062C383.344 5.73438 383.273 5.53906 383.273 5.30469ZM388.726 16H387.281V4H388.726V16ZM392.617 16H391.172V7.54688H392.617V16ZM391.054 5.30469C391.054 5.07031 391.125 4.8724 391.265 4.71094C391.411 4.54948 391.625 4.46875 391.906 4.46875C392.187 4.46875 392.401 4.54948 392.547 4.71094C392.693 4.8724 392.765 5.07031 392.765 5.30469C392.765 5.53906 392.693 5.73438 392.547 5.89062C392.401 6.04688 392.187 6.125 391.906 6.125C391.625 6.125 391.411 6.04688 391.265 5.89062C391.125 5.73438 391.054 5.53906 391.054 5.30469ZM396.304 7.54688L396.351 8.60938C396.997 7.79688 397.841 7.39062 398.883 7.39062C400.669 7.39062 401.57 8.39844 401.586 10.4141V16H400.14V10.4062C400.135 9.79688 399.995 9.34635 399.719 9.05469C399.448 8.76302 399.023 8.61719 398.445 8.61719C397.976 8.61719 397.565 8.74219 397.211 8.99219C396.857 9.24219 396.581 9.57031 396.383 9.97656V16H394.937V7.54688H396.304ZM403.422 11.7031C403.422 10.3854 403.726 9.33854 404.336 8.5625C404.945 7.78125 405.752 7.39062 406.758 7.39062C407.789 7.39062 408.594 7.75521 409.172 8.48438L409.242 7.54688H410.562V15.7969C410.562 16.8906 410.237 17.7526 409.586 18.3828C408.94 19.013 408.07 19.3281 406.976 19.3281C406.367 19.3281 405.771 19.1979 405.187 18.9375C404.604 18.6771 404.159 18.3203 403.851 17.8672L404.601 17C405.221 17.7656 405.979 18.1484 406.875 18.1484C407.578 18.1484 408.125 17.9505 408.515 17.5547C408.911 17.1589 409.109 16.6016 409.109 15.8828V15.1562C408.531 15.8229 407.742 16.1562 406.742 16.1562C405.752 16.1562 404.95 15.7578 404.336 14.9609C403.726 14.1641 403.422 13.0781 403.422 11.7031ZM404.875 11.8672C404.875 12.8203 405.07 13.5703 405.461 14.1172C405.851 14.6589 406.398 14.9297 407.101 14.9297C408.013 14.9297 408.682 14.5156 409.109 13.6875V9.82812C408.666 9.02083 408.002 8.61719 407.117 8.61719C406.414 8.61719 405.864 8.89062 405.469 9.4375C405.073 9.98438 404.875 10.7943 404.875 11.8672ZM355.109 31.3906C354.969 32.5938 354.523 33.5234 353.773 34.1797C353.028 34.8307 352.036 35.1562 350.797 35.1562C349.453 35.1562 348.375 34.6745 347.562 33.7109C346.755 32.7474 346.351 31.4583 346.351 29.8438V28.75C346.351 27.6927 346.539 26.763 346.914 25.9609C347.294 25.1589 347.831 24.5443 348.523 24.1172C349.216 23.6849 350.018 23.4688 350.929 23.4688C352.138 23.4688 353.107 23.8073 353.836 24.4844C354.565 25.1562 354.989 26.0885 355.109 27.2812H353.601C353.471 26.375 353.187 25.7188 352.75 25.3125C352.318 24.9062 351.711 24.7031 350.929 24.7031C349.971 24.7031 349.219 25.0573 348.672 25.7656C348.13 26.474 347.859 27.4818 347.859 28.7891V29.8906C347.859 31.125 348.117 32.1068 348.633 32.8359C349.148 33.5651 349.87 33.9297 350.797 33.9297C351.63 33.9297 352.268 33.7422 352.711 33.3672C353.159 32.987 353.456 32.3281 353.601 31.3906H355.109ZM358.508 35H357.062V26.5469H358.508V35ZM356.945 24.3047C356.945 24.0703 357.015 23.8724 357.156 23.7109C357.302 23.5495 357.515 23.4688 357.797 23.4688C358.078 23.4688 358.291 23.5495 358.437 23.7109C358.583 23.8724 358.656 24.0703 358.656 24.3047C358.656 24.5391 358.583 24.7344 358.437 24.8906C358.291 25.0469 358.078 25.125 357.797 25.125C357.515 25.125 357.302 25.0469 357.156 24.8906C357.015 24.7344 356.945 24.5391 356.945 24.3047ZM364.914 27.8438C364.695 27.8073 364.458 27.7891 364.203 27.7891C363.255 27.7891 362.612 28.1927 362.273 29V35H360.828V26.5469H362.234L362.258 27.5234C362.732 26.7682 363.403 26.3906 364.273 26.3906C364.554 26.3906 364.768 26.4271 364.914 26.5V27.8438ZM369.484 33.9766C370 33.9766 370.45 33.8203 370.836 33.5078C371.221 33.1953 371.435 32.8047 371.476 32.3359H372.844C372.818 32.8203 372.651 33.2812 372.344 33.7188C372.036 34.1562 371.625 34.5052 371.109 34.7656C370.599 35.026 370.057 35.1562 369.484 35.1562C368.333 35.1562 367.416 34.7734 366.734 34.0078C366.057 33.237 365.719 32.1849 365.719 30.8516V30.6094C365.719 29.7865 365.87 29.0547 366.172 28.4141C366.474 27.7734 366.906 27.276 367.469 26.9219C368.036 26.5677 368.706 26.3906 369.476 26.3906C370.424 26.3906 371.211 26.6745 371.836 27.2422C372.466 27.8099 372.802 28.5469 372.844 29.4531H371.476C371.435 28.9062 371.226 28.4583 370.851 28.1094C370.482 27.7552 370.023 27.5781 369.476 27.5781C368.742 27.5781 368.172 27.8438 367.765 28.375C367.364 28.901 367.164 29.6641 367.164 30.6641V30.9375C367.164 31.9115 367.364 32.6615 367.765 33.1875C368.166 33.7135 368.739 33.9766 369.484 33.9766ZM379.687 34.1641C379.125 34.8255 378.299 35.1562 377.211 35.1562C376.31 35.1562 375.622 34.8958 375.148 34.375C374.679 33.849 374.443 33.0729 374.437 32.0469V26.5469H375.883V32.0078C375.883 33.2891 376.403 33.9297 377.445 33.9297C378.549 33.9297 379.284 33.5182 379.648 32.6953V26.5469H381.094V35H379.719L379.687 34.1641ZM384.867 35H383.422V26.5469H384.867V35ZM383.304 24.3047C383.304 24.0703 383.375 23.8724 383.515 23.7109C383.661 23.5495 383.875 23.4688 384.156 23.4688C384.437 23.4688 384.651 23.5495 384.797 23.7109C384.943 23.8724 385.015 24.0703 385.015 24.3047C385.015 24.5391 384.943 24.7344 384.797 24.8906C384.651 25.0469 384.437 25.125 384.156 25.125C383.875 25.125 383.661 25.0469 383.515 24.8906C383.375 24.7344 383.304 24.5391 383.304 24.3047ZM389.148 24.5V26.5469H390.726V27.6641H389.148V32.9062C389.148 33.2448 389.219 33.5 389.359 33.6719C389.5 33.8385 389.739 33.9219 390.078 33.9219C390.245 33.9219 390.474 33.8906 390.765 33.8281V35C390.385 35.1042 390.015 35.1562 389.656 35.1562C389.01 35.1562 388.523 34.9609 388.195 34.5703C387.867 34.1797 387.703 33.625 387.703 32.9062V27.6641H386.164V26.5469H387.703V24.5H389.148ZM397.344 32.7578C397.344 32.3672 397.195 32.0651 396.898 31.8516C396.607 31.6328 396.094 31.4453 395.359 31.2891C394.63 31.1328 394.049 30.9453 393.617 30.7266C393.19 30.5078 392.872 30.2474 392.664 29.9453C392.461 29.6432 392.359 29.2839 392.359 28.8672C392.359 28.1745 392.651 27.5885 393.234 27.1094C393.823 26.6302 394.573 26.3906 395.484 26.3906C396.443 26.3906 397.219 26.638 397.812 27.1328C398.411 27.6276 398.711 28.2604 398.711 29.0312H397.258C397.258 28.6354 397.088 28.2943 396.75 28.0078C396.416 27.7214 395.995 27.5781 395.484 27.5781C394.958 27.5781 394.547 27.6927 394.25 27.9219C393.953 28.151 393.804 28.4505 393.804 28.8203C393.804 29.1693 393.943 29.4323 394.219 29.6094C394.495 29.7865 394.992 29.9557 395.711 30.1172C396.435 30.2786 397.021 30.4714 397.469 30.6953C397.916 30.9193 398.247 31.1901 398.461 31.5078C398.679 31.8203 398.789 32.2031 398.789 32.6562C398.789 33.4115 398.487 34.0182 397.883 34.4766C397.278 34.9297 396.495 35.1562 395.531 35.1562C394.854 35.1562 394.255 35.0365 393.734 34.7969C393.213 34.5573 392.804 34.224 392.508 33.7969C392.216 33.3646 392.07 32.8984 392.07 32.3984H393.515C393.541 32.8828 393.734 33.2682 394.094 33.5547C394.458 33.8359 394.937 33.9766 395.531 33.9766C396.078 33.9766 396.515 33.8672 396.844 33.6484C397.177 33.4245 397.344 33.1276 397.344 32.7578Z" fill="white"/>
<path d="M539.094 146.07C539.094 145.242 539.255 144.497 539.578 143.836C539.906 143.174 540.359 142.664 540.938 142.305C541.521 141.945 542.185 141.766 542.93 141.766C544.081 141.766 545.011 142.164 545.719 142.961C546.432 143.758 546.789 144.818 546.789 146.141V146.242C546.789 147.065 546.63 147.805 546.313 148.461C546 149.112 545.55 149.62 544.961 149.984C544.378 150.349 543.706 150.531 542.945 150.531C541.8 150.531 540.87 150.133 540.156 149.336C539.448 148.539 539.094 147.484 539.094 146.172V146.07ZM540.547 146.242C540.547 147.18 540.763 147.932 541.195 148.5C541.633 149.068 542.216 149.352 542.945 149.352C543.68 149.352 544.263 149.065 544.695 148.492C545.128 147.914 545.344 147.107 545.344 146.07C545.344 145.143 545.122 144.393 544.68 143.82C544.242 143.242 543.659 142.953 542.93 142.953C542.216 142.953 541.641 143.237 541.203 143.805C540.766 144.372 540.547 145.185 540.547 146.242ZM553.82 149.539C553.258 150.201 552.432 150.531 551.344 150.531C550.443 150.531 549.755 150.271 549.281 149.75C548.813 149.224 548.576 148.448 548.57 147.422V141.922H550.016V147.383C550.016 148.664 550.537 149.305 551.578 149.305C552.682 149.305 553.417 148.893 553.781 148.07V141.922H555.227V150.375H553.852L553.82 149.539ZM559.391 139.875V141.922H560.969V143.039H559.391V148.281C559.391 148.62 559.461 148.875 559.602 149.047C559.742 149.214 559.982 149.297 560.32 149.297C560.487 149.297 560.716 149.266 561.008 149.203V150.375C560.628 150.479 560.258 150.531 559.899 150.531C559.253 150.531 558.766 150.336 558.438 149.945C558.109 149.555 557.945 149 557.945 148.281V143.039H556.406V141.922H557.945V139.875H559.391ZM569.805 146.242C569.805 147.529 569.511 148.565 568.922 149.352C568.333 150.138 567.537 150.531 566.531 150.531C565.505 150.531 564.698 150.206 564.109 149.555V153.625H562.664V141.922H563.984L564.055 142.859C564.643 142.13 565.461 141.766 566.508 141.766C567.524 141.766 568.326 142.148 568.914 142.914C569.508 143.68 569.805 144.745 569.805 146.109V146.242ZM568.359 146.078C568.359 145.125 568.156 144.372 567.75 143.82C567.344 143.268 566.787 142.992 566.078 142.992C565.203 142.992 564.547 143.38 564.109 144.156V148.195C564.542 148.966 565.203 149.352 566.094 149.352C566.787 149.352 567.336 149.078 567.742 148.531C568.154 147.979 568.359 147.161 568.359 146.078ZM576.867 149.539C576.305 150.201 575.479 150.531 574.391 150.531C573.49 150.531 572.802 150.271 572.328 149.75C571.859 149.224 571.622 148.448 571.617 147.422V141.922H573.063V147.383C573.063 148.664 573.583 149.305 574.625 149.305C575.729 149.305 576.464 148.893 576.828 148.07V141.922H578.274V150.375H576.899L576.867 149.539ZM582.438 139.875V141.922H584.016V143.039H582.438V148.281C582.438 148.62 582.508 148.875 582.649 149.047C582.789 149.214 583.029 149.297 583.367 149.297C583.534 149.297 583.763 149.266 584.055 149.203V150.375C583.675 150.479 583.305 150.531 582.945 150.531C582.3 150.531 581.813 150.336 581.484 149.945C581.156 149.555 580.992 149 580.992 148.281V143.039H579.453V141.922H580.992V139.875H582.438Z" fill="black"/>
<path d="M231.281 150.15H229.836V141.697H231.281V150.15ZM229.719 139.455C229.719 139.22 229.789 139.022 229.93 138.861C230.076 138.699 230.289 138.619 230.57 138.619C230.852 138.619 231.065 138.699 231.211 138.861C231.357 139.022 231.43 139.22 231.43 139.455C231.43 139.689 231.357 139.884 231.211 140.041C231.065 140.197 230.852 140.275 230.57 140.275C230.289 140.275 230.076 140.197 229.93 140.041C229.789 139.884 229.719 139.689 229.719 139.455ZM234.969 141.697L235.016 142.759C235.661 141.947 236.505 141.541 237.547 141.541C239.333 141.541 240.234 142.548 240.25 144.564V150.15H238.805V144.556C238.799 143.947 238.659 143.496 238.383 143.205C238.112 142.913 237.688 142.767 237.109 142.767C236.641 142.767 236.229 142.892 235.875 143.142C235.521 143.392 235.245 143.72 235.047 144.127V150.15H233.602V141.697H234.969ZM249.57 146.017C249.57 147.304 249.276 148.34 248.688 149.127C248.099 149.913 247.302 150.306 246.297 150.306C245.271 150.306 244.464 149.981 243.875 149.33V153.4H242.43V141.697H243.75L243.82 142.634C244.409 141.905 245.227 141.541 246.273 141.541C247.289 141.541 248.091 141.923 248.68 142.689C249.273 143.455 249.57 144.52 249.57 145.884V146.017ZM248.125 145.853C248.125 144.9 247.922 144.147 247.516 143.595C247.109 143.043 246.552 142.767 245.844 142.767C244.969 142.767 244.312 143.155 243.875 143.931V147.97C244.307 148.741 244.969 149.127 245.859 149.127C246.552 149.127 247.102 148.853 247.508 148.306C247.919 147.754 248.125 146.936 248.125 145.853ZM256.633 149.314C256.07 149.976 255.245 150.306 254.156 150.306C253.255 150.306 252.568 150.046 252.094 149.525C251.625 148.999 251.388 148.223 251.383 147.197V141.697H252.828V147.158C252.828 148.439 253.349 149.08 254.391 149.08C255.495 149.08 256.229 148.668 256.594 147.845V141.697H258.039V150.15H256.664L256.633 149.314ZM262.203 139.65V141.697H263.781V142.814H262.203V148.056C262.203 148.395 262.273 148.65 262.414 148.822C262.555 148.989 262.794 149.072 263.133 149.072C263.299 149.072 263.529 149.041 263.82 148.978V150.15C263.44 150.254 263.07 150.306 262.711 150.306C262.065 150.306 261.578 150.111 261.25 149.72C260.922 149.33 260.758 148.775 260.758 148.056V142.814H259.219V141.697H260.758V139.65H262.203Z" fill="black"/>
<rect x="685" y="135" width="73" height="26" rx="13" fill="#6808F9"/>
<path d="M708.109 150.241C707.969 151.444 707.523 152.373 706.773 153.03C706.028 153.681 705.036 154.006 703.797 154.006C702.453 154.006 701.375 153.524 700.562 152.561C699.755 151.597 699.351 150.308 699.351 148.694V147.6C699.351 146.543 699.539 145.613 699.914 144.811C700.294 144.009 700.831 143.394 701.523 142.967C702.216 142.535 703.018 142.319 703.929 142.319C705.138 142.319 706.107 142.657 706.836 143.334C707.565 144.006 707.989 144.939 708.109 146.131H706.601C706.471 145.225 706.187 144.569 705.75 144.162C705.318 143.756 704.711 143.553 703.929 143.553C702.971 143.553 702.219 143.907 701.672 144.616C701.13 145.324 700.859 146.332 700.859 147.639V148.741C700.859 149.975 701.117 150.957 701.633 151.686C702.148 152.415 702.87 152.78 703.797 152.78C704.63 152.78 705.268 152.592 705.711 152.217C706.159 151.837 706.456 151.178 706.601 150.241H708.109ZM711.508 153.85H710.062V145.397H711.508V153.85ZM709.945 143.155C709.945 142.92 710.015 142.722 710.156 142.561C710.302 142.399 710.515 142.319 710.797 142.319C711.078 142.319 711.291 142.399 711.437 142.561C711.583 142.722 711.656 142.92 711.656 143.155C711.656 143.389 711.583 143.584 711.437 143.741C711.291 143.897 711.078 143.975 710.797 143.975C710.515 143.975 710.302 143.897 710.156 143.741C710.015 143.584 709.945 143.389 709.945 143.155ZM717.914 146.694C717.695 146.657 717.458 146.639 717.203 146.639C716.255 146.639 715.612 147.043 715.273 147.85V153.85H713.828V145.397H715.234L715.258 146.373C715.732 145.618 716.403 145.241 717.273 145.241C717.554 145.241 717.768 145.277 717.914 145.35V146.694ZM718.742 149.553C718.742 148.225 719.047 147.176 719.656 146.405C720.265 145.629 721.083 145.241 722.109 145.241C723.109 145.241 723.898 145.577 724.476 146.248L724.539 145.397H725.867V157.1H724.422V153.069C723.838 153.694 723.062 154.006 722.094 154.006C721.073 154.006 720.258 153.61 719.648 152.819C719.044 152.022 718.742 150.967 718.742 149.655V149.553ZM720.187 149.717C720.187 150.686 720.39 151.446 720.797 151.998C721.208 152.551 721.76 152.827 722.453 152.827C723.312 152.827 723.969 152.446 724.422 151.686V147.545C723.963 146.801 723.312 146.428 722.469 146.428C721.771 146.428 721.216 146.707 720.804 147.264C720.393 147.816 720.187 148.634 720.187 149.717ZM731.179 142.037H729.687V155.1H731.179V156.287H728.234V140.85H731.179V142.037ZM737.039 153.85H735.586V144.217L732.672 145.287V143.975L736.812 142.42H737.039V153.85ZM740.398 140.85H743.351V156.287H740.398V155.1H741.906V142.037H740.398V140.85Z" fill="white"/>
</svg>
