<svg width="792" height="427" viewBox="0 0 792 427" fill="none" xmlns="http://www.w3.org/2000/svg">
<g clip-path="url(#clip0)">
<rect x="142" y="85" width="590" height="264" rx="20" fill="#5452F6"/>
<rect x="544" y="281" width="90" height="40" rx="20" fill="#F3A409"/>
<path d="M571.727 301.93C570.44 301.56 569.503 301.107 568.914 300.57C568.331 300.029 568.039 299.362 568.039 298.57C568.039 297.674 568.396 296.935 569.109 296.352C569.828 295.763 570.76 295.469 571.906 295.469C572.688 295.469 573.383 295.62 573.992 295.922C574.607 296.224 575.081 296.641 575.414 297.172C575.753 297.703 575.922 298.284 575.922 298.914H574.414C574.414 298.227 574.195 297.688 573.758 297.297C573.32 296.901 572.703 296.703 571.906 296.703C571.167 296.703 570.589 296.867 570.172 297.195C569.76 297.518 569.555 297.969 569.555 298.547C569.555 299.01 569.75 299.404 570.141 299.727C570.536 300.044 571.206 300.336 572.148 300.602C573.096 300.867 573.836 301.161 574.367 301.484C574.904 301.802 575.299 302.174 575.555 302.602C575.815 303.029 575.945 303.531 575.945 304.109C575.945 305.031 575.586 305.771 574.867 306.328C574.148 306.88 573.188 307.156 571.984 307.156C571.203 307.156 570.474 307.008 569.797 306.711C569.12 306.409 568.596 305.997 568.227 305.477C567.862 304.956 567.68 304.365 567.68 303.703H569.188C569.188 304.391 569.44 304.935 569.945 305.336C570.456 305.732 571.135 305.93 571.984 305.93C572.776 305.93 573.383 305.768 573.805 305.445C574.227 305.122 574.438 304.682 574.438 304.125C574.438 303.568 574.242 303.138 573.852 302.836C573.461 302.529 572.753 302.227 571.727 301.93ZM580.328 303.414L580.547 304.914L580.867 303.562L583.117 295.625H584.383L586.578 303.562L586.891 304.938L587.133 303.406L588.898 295.625H590.406L587.648 307H586.281L583.938 298.711L583.758 297.844L583.578 298.711L581.148 307H579.781L577.031 295.625H578.531L580.328 303.414ZM598.016 304.031H593.25L592.18 307H590.633L594.977 295.625H596.289L600.641 307H599.102L598.016 304.031ZM593.703 302.797H597.57L595.633 297.477L593.703 302.797ZM603.672 302.547V307H602.172V295.625H606.367C607.612 295.625 608.586 295.943 609.289 296.578C609.997 297.214 610.352 298.055 610.352 299.102C610.352 300.206 610.005 301.057 609.312 301.656C608.625 302.25 607.638 302.547 606.352 302.547H603.672ZM603.672 301.32H606.367C607.169 301.32 607.784 301.133 608.211 300.758C608.638 300.378 608.852 299.831 608.852 299.117C608.852 298.44 608.638 297.898 608.211 297.492C607.784 297.086 607.198 296.875 606.453 296.859H603.672V301.32Z" fill="black"/>
<path d="M672 301H775.5C792.069 301 805.5 314.431 805.5 331V437C805.5 453.569 818.931 467 835.5 467H939" stroke="white" stroke-width="2"/>
<circle cx="672" cy="301" r="5" transform="rotate(-180 672 301)" fill="white"/>
<rect x="215" y="200" width="100" height="40" rx="20" fill="white"/>
<path d="M240.961 215.859H237.305V226H235.812V215.859H232.164V214.625H240.961V215.859ZM245.914 218.844C245.695 218.807 245.458 218.789 245.203 218.789C244.255 218.789 243.612 219.193 243.273 220V226H241.828V217.547H243.234L243.258 218.523C243.732 217.768 244.404 217.391 245.273 217.391C245.555 217.391 245.768 217.427 245.914 217.5V218.844ZM252.156 226C252.073 225.833 252.005 225.536 251.953 225.109C251.281 225.807 250.479 226.156 249.547 226.156C248.714 226.156 248.029 225.922 247.492 225.453C246.961 224.979 246.695 224.38 246.695 223.656C246.695 222.776 247.029 222.094 247.695 221.609C248.367 221.12 249.31 220.875 250.523 220.875H251.93V220.211C251.93 219.706 251.779 219.305 251.477 219.008C251.174 218.706 250.729 218.555 250.141 218.555C249.625 218.555 249.193 218.685 248.844 218.945C248.495 219.206 248.32 219.521 248.32 219.891H246.867C246.867 219.469 247.016 219.062 247.312 218.672C247.615 218.276 248.021 217.964 248.531 217.734C249.047 217.505 249.612 217.391 250.227 217.391C251.201 217.391 251.964 217.635 252.516 218.125C253.068 218.609 253.354 219.279 253.375 220.133V224.023C253.375 224.799 253.474 225.417 253.672 225.875V226H252.156ZM249.758 224.898C250.211 224.898 250.641 224.781 251.047 224.547C251.453 224.312 251.747 224.008 251.93 223.633V221.898H250.797C249.026 221.898 248.141 222.417 248.141 223.453C248.141 223.906 248.292 224.26 248.594 224.516C248.896 224.771 249.284 224.898 249.758 224.898ZM257.008 217.547L257.055 218.609C257.701 217.797 258.544 217.391 259.586 217.391C261.372 217.391 262.273 218.398 262.289 220.414V226H260.844V220.406C260.839 219.797 260.698 219.346 260.422 219.055C260.151 218.763 259.727 218.617 259.148 218.617C258.68 218.617 258.268 218.742 257.914 218.992C257.56 219.242 257.284 219.57 257.086 219.977V226H255.641V217.547H257.008ZM271.609 221.867C271.609 223.154 271.315 224.19 270.727 224.977C270.138 225.763 269.341 226.156 268.336 226.156C267.31 226.156 266.503 225.831 265.914 225.18V229.25H264.469V217.547H265.789L265.859 218.484C266.448 217.755 267.266 217.391 268.312 217.391C269.328 217.391 270.13 217.773 270.719 218.539C271.312 219.305 271.609 220.37 271.609 221.734V221.867ZM270.164 221.703C270.164 220.75 269.961 219.997 269.555 219.445C269.148 218.893 268.591 218.617 267.883 218.617C267.008 218.617 266.352 219.005 265.914 219.781V223.82C266.346 224.591 267.008 224.977 267.898 224.977C268.591 224.977 269.141 224.703 269.547 224.156C269.958 223.604 270.164 222.786 270.164 221.703ZM273.07 221.695C273.07 220.867 273.232 220.122 273.555 219.461C273.883 218.799 274.336 218.289 274.914 217.93C275.497 217.57 276.161 217.391 276.906 217.391C278.057 217.391 278.987 217.789 279.695 218.586C280.409 219.383 280.766 220.443 280.766 221.766V221.867C280.766 222.69 280.607 223.43 280.289 224.086C279.977 224.737 279.526 225.245 278.938 225.609C278.354 225.974 277.682 226.156 276.922 226.156C275.776 226.156 274.846 225.758 274.133 224.961C273.424 224.164 273.07 223.109 273.07 221.797V221.695ZM274.523 221.867C274.523 222.805 274.74 223.557 275.172 224.125C275.609 224.693 276.193 224.977 276.922 224.977C277.656 224.977 278.24 224.69 278.672 224.117C279.104 223.539 279.32 222.732 279.32 221.695C279.32 220.768 279.099 220.018 278.656 219.445C278.219 218.867 277.635 218.578 276.906 218.578C276.193 218.578 275.617 218.862 275.18 219.43C274.742 219.997 274.523 220.81 274.523 221.867ZM287.5 223.758C287.5 223.367 287.352 223.065 287.055 222.852C286.763 222.633 286.25 222.445 285.516 222.289C284.786 222.133 284.206 221.945 283.773 221.727C283.346 221.508 283.029 221.247 282.82 220.945C282.617 220.643 282.516 220.284 282.516 219.867C282.516 219.174 282.807 218.589 283.391 218.109C283.979 217.63 284.729 217.391 285.641 217.391C286.599 217.391 287.375 217.638 287.969 218.133C288.568 218.628 288.867 219.26 288.867 220.031H287.414C287.414 219.635 287.245 219.294 286.906 219.008C286.573 218.721 286.151 218.578 285.641 218.578C285.115 218.578 284.703 218.693 284.406 218.922C284.109 219.151 283.961 219.451 283.961 219.82C283.961 220.169 284.099 220.432 284.375 220.609C284.651 220.786 285.148 220.956 285.867 221.117C286.591 221.279 287.177 221.471 287.625 221.695C288.073 221.919 288.404 222.19 288.617 222.508C288.836 222.82 288.945 223.203 288.945 223.656C288.945 224.411 288.643 225.018 288.039 225.477C287.435 225.93 286.651 226.156 285.688 226.156C285.01 226.156 284.411 226.036 283.891 225.797C283.37 225.557 282.961 225.224 282.664 224.797C282.372 224.365 282.227 223.898 282.227 223.398H283.672C283.698 223.883 283.891 224.268 284.25 224.555C284.615 224.836 285.094 224.977 285.688 224.977C286.234 224.977 286.672 224.867 287 224.648C287.333 224.424 287.5 224.128 287.5 223.758ZM294.336 226.156C293.19 226.156 292.258 225.781 291.539 225.031C290.82 224.276 290.461 223.268 290.461 222.008V221.742C290.461 220.904 290.62 220.156 290.938 219.5C291.26 218.839 291.708 218.323 292.281 217.953C292.859 217.578 293.484 217.391 294.156 217.391C295.255 217.391 296.109 217.753 296.719 218.477C297.328 219.201 297.633 220.237 297.633 221.586V222.188H291.906C291.927 223.021 292.169 223.695 292.633 224.211C293.102 224.721 293.695 224.977 294.414 224.977C294.924 224.977 295.357 224.872 295.711 224.664C296.065 224.456 296.375 224.18 296.641 223.836L297.523 224.523C296.815 225.612 295.753 226.156 294.336 226.156ZM294.156 218.578C293.573 218.578 293.083 218.792 292.688 219.219C292.292 219.641 292.047 220.234 291.953 221H296.188V220.891C296.146 220.156 295.948 219.589 295.594 219.188C295.24 218.781 294.76 218.578 294.156 218.578Z" fill="black"/>
<path d="M199 215H78.5C61.9315 215 48.5 228.431 48.5 245V335C48.5 351.569 35.0685 365 18.5 365H-102" stroke="white" stroke-width="2"/>
<circle r="5" transform="matrix(1 0 0 -1 199 215)" fill="white"/>
<rect x="20" y="258" width="57" height="57" rx="20" fill="white"/>
<path d="M50.883 289.856H46.1174L45.0471 292.825H43.5002L47.8439 281.45H49.1564L53.508 292.825H51.9689L50.883 289.856ZM46.5705 288.622H50.4377L48.5002 283.302L46.5705 288.622Z" fill="black"/>
</g>
<defs>
<clipPath id="clip0">
<rect width="792" height="427" fill="white"/>
</clipPath>
</defs>
</svg>
